
<svg id="visual" viewBox="0 0 900 450" width="900" height="450" xmlns="http://www.w3.org/2000/svg" xmlns:xlink="http://www.w3.org/1999/xlink" version="1.1"><rect x="0" y="0" width="900" height="450" fill="#928c47"></rect><defs><linearGradient id="grad1_0" x1="50%" y1="100%" x2="100%" y2="0%"><stop offset="10%" stop-color="#928c47" stop-opacity="1"></stop><stop offset="90%" stop-color="#928c47" stop-opacity="1"></stop></linearGradient></defs><defs><linearGradient id="grad2_0" x1="0%" y1="100%" x2="50%" y2="0%"><stop offset="10%" stop-color="#928c47" stop-opacity="1"></stop><stop offset="90%" stop-color="#928c47" stop-opacity="1"></stop></linearGradient></defs><g transform="translate(900, 450)"><path d="M-247.5 0C-244.4 -49.1 -241.3 -98.2 -214.3 -123.8C-187.4 -149.3 -136.7 -151.3 -97 -168C-57.3 -184.7 -28.7 -216.1 0 -247.5L0 0Z" fill="#c7bb9c"></path></g><g transform="translate(0, 0)"><path d="M247.5 0C247.6 54.6 247.7 109.3 214.3 123.7C181 138.2 114.3 112.5 73 126.4C31.7 140.4 15.9 193.9 0 247.5L0 0Z" fill="#c7bb9c"></path></g></svg>