
<svg id="visual" viewBox="0 0 900 450" width="900" height="450" xmlns="http://www.w3.org/2000/svg" xmlns:xlink="http://www.w3.org/1999/xlink" version="1.1"><path d="M0 60L82 78L164 100L245 42L327 42L409 60L491 127L573 82L655 60L736 73L818 114L900 114L900 0L818 0L736 0L655 0L573 0L491 0L409 0L327 0L245 0L164 0L82 0L0 0Z" fill="#928c47"></path><path d="M0 91L82 163L164 186L245 96L327 109L409 132L491 181L573 150L655 123L736 150L818 163L900 163L900 112L818 112L736 71L655 58L573 80L491 125L409 58L327 40L245 40L164 98L82 76L0 58Z" fill="#a99f64"></path><path d="M0 150L82 231L164 249L245 168L327 154L409 159L491 226L573 213L655 199L736 222L818 231L900 235L900 161L818 161L736 148L655 121L573 148L491 179L409 130L327 107L245 94L164 184L82 161L0 89Z" fill="#bfb381"></path><path d="M0 262L82 294L164 361L245 253L327 379L409 303L491 298L573 280L655 271L736 303L818 321L900 393L900 233L818 229L736 220L655 197L573 211L491 224L409 157L327 152L245 166L164 247L82 229L0 148Z" fill="#d4c8a0"></path><path d="M0 451L82 451L164 451L245 451L327 451L409 451L491 451L573 451L655 451L736 451L818 451L900 451L900 391L818 319L736 301L655 269L573 278L491 296L409 301L327 377L245 251L164 359L82 292L0 260Z" fill="#e9ddbf"></path></svg>