
<svg id="visual" viewBox="0 0 900 450" width="900" height="450" xmlns="http://www.w3.org/2000/svg" xmlns:xlink="http://www.w3.org/1999/xlink" version="1.1"><rect x="0" y="0" width="900" height="450" fill="#e9ddbf"></rect><defs><linearGradient id="grad1_0" x1="50%" y1="0%" x2="100%" y2="100%"><stop offset="10%" stop-color="#928c47" stop-opacity="1"></stop><stop offset="90%" stop-color="#928c47" stop-opacity="1"></stop></linearGradient></defs><defs><linearGradient id="grad1_1" x1="50%" y1="0%" x2="100%" y2="100%"><stop offset="10%" stop-color="#928c47" stop-opacity="1"></stop><stop offset="90%" stop-color="#e9ddbf" stop-opacity="1"></stop></linearGradient></defs><defs><linearGradient id="grad2_0" x1="0%" y1="0%" x2="50%" y2="100%"><stop offset="10%" stop-color="#928c47" stop-opacity="1"></stop><stop offset="90%" stop-color="#928c47" stop-opacity="1"></stop></linearGradient></defs><defs><linearGradient id="grad2_1" x1="0%" y1="0%" x2="50%" y2="100%"><stop offset="10%" stop-color="#e9ddbf" stop-opacity="1"></stop><stop offset="90%" stop-color="#928c47" stop-opacity="1"></stop></linearGradient></defs><g transform="translate(900, 0)"><path d="M0 405C-45 378.6 -89.9 352.3 -138.9 335.4C-187.9 318.5 -240.9 311.1 -282.8 282.8C-324.8 254.6 -355.7 205.6 -374.2 155C-392.7 104.4 -398.8 52.2 -405 0L0 0Z" fill="#bfb381"></path><path d="M0 202.5C-22.5 189.3 -45 176.1 -69.5 167.7C-93.9 159.2 -120.5 155.5 -141.4 141.4C-162.4 127.3 -177.8 102.8 -187.1 77.5C-196.3 52.2 -199.4 26.1 -202.5 0L0 0Z" fill="#928c47"></path></g><g transform="translate(0, 450)"><path d="M0 -405C50.1 -393.2 100.2 -381.4 150.8 -364C201.3 -346.7 252.3 -323.8 286.4 -286.4C320.5 -249 337.8 -197.1 354.8 -147C371.7 -96.8 388.4 -48.4 405 0L0 0Z" fill="#bfb381"></path><path d="M0 -202.5C25.1 -196.6 50.1 -190.7 75.4 -182C100.7 -173.3 126.1 -161.9 143.2 -143.2C160.3 -124.5 168.9 -98.5 177.4 -73.5C185.9 -48.4 194.2 -24.2 202.5 0L0 0Z" fill="#928c47"></path></g></svg>