
<svg id="visual" viewBox="0 0 900 450" width="900" height="450" xmlns="http://www.w3.org/2000/svg" xmlns:xlink="http://www.w3.org/1999/xlink" version="1.1"><path d="M0 28L13.7 34.8C27.3 41.7 54.7 55.3 82 62.2C109.3 69 136.7 69 163.8 64.5C191 60 218 51 245.2 51.7C272.3 52.3 299.7 62.7 327 64.8C354.3 67 381.7 61 409 57.3C436.3 53.7 463.7 52.3 491 47.8C518.3 43.3 545.7 35.7 573 34.8C600.3 34 627.7 40 654.8 40C682 40 709 34 736.2 38.5C763.3 43 790.7 58 818 61.8C845.3 65.7 872.7 58.3 886.3 54.7L900 51L900 0L886.3 0C872.7 0 845.3 0 818 0C790.7 0 763.3 0 736.2 0C709 0 682 0 654.8 0C627.7 0 600.3 0 573 0C545.7 0 518.3 0 491 0C463.7 0 436.3 0 409 0C381.7 0 354.3 0 327 0C299.7 0 272.3 0 245.2 0C218 0 191 0 163.8 0C136.7 0 109.3 0 82 0C54.7 0 27.3 0 13.7 0L0 0Z" fill="#282115"></path><path d="M0 141L13.7 153.7C27.3 166.3 54.7 191.7 82 206.7C109.3 221.7 136.7 226.3 163.8 209.8C191 193.3 218 155.7 245.2 145.2C272.3 134.7 299.7 151.3 327 173.2C354.3 195 381.7 222 409 224.2C436.3 226.3 463.7 203.7 491 195.3C518.3 187 545.7 193 573 196C600.3 199 627.7 199 654.8 193.8C682 188.7 709 178.3 736.2 174.7C763.3 171 790.7 174 818 166.5C845.3 159 872.7 141 886.3 132L900 123L900 49L886.3 52.7C872.7 56.3 845.3 63.7 818 59.8C790.7 56 763.3 41 736.2 36.5C709 32 682 38 654.8 38C627.7 38 600.3 32 573 32.8C545.7 33.7 518.3 41.3 491 45.8C463.7 50.3 436.3 51.7 409 55.3C381.7 59 354.3 65 327 62.8C299.7 60.7 272.3 50.3 245.2 49.7C218 49 191 58 163.8 62.5C136.7 67 109.3 67 82 60.2C54.7 53.3 27.3 39.7 13.7 32.8L0 26Z" fill="#352b1c"></path><path d="M0 226L13.7 235.8C27.3 245.7 54.7 265.3 82 278.2C109.3 291 136.7 297 163.8 282.7C191 268.3 218 233.7 245.2 220.2C272.3 206.7 299.7 214.3 327 236.8C354.3 259.3 381.7 296.7 409 304.2C436.3 311.7 463.7 289.3 491 279.7C518.3 270 545.7 273 573 274.5C600.3 276 627.7 276 654.8 270.7C682 265.3 709 254.7 736.2 252.3C763.3 250 790.7 256 818 247.8C845.3 239.7 872.7 217.3 886.3 206.2L900 195L900 121L886.3 130C872.7 139 845.3 157 818 164.5C790.7 172 763.3 169 736.2 172.7C709 176.3 682 186.7 654.8 191.8C627.7 197 600.3 197 573 194C545.7 191 518.3 185 491 193.3C463.7 201.7 436.3 224.3 409 222.2C381.7 220 354.3 193 327 171.2C299.7 149.3 272.3 132.7 245.2 143.2C218 153.7 191 191.3 163.8 207.8C136.7 224.3 109.3 219.7 82 204.7C54.7 189.7 27.3 164.3 13.7 151.7L0 139Z" fill="#423623"></path><path d="M0 343L13.7 339.3C27.3 335.7 54.7 328.3 82 332.2C109.3 336 136.7 351 163.8 341.2C191 331.3 218 296.7 245.2 279.3C272.3 262 299.7 262 327 283C354.3 304 381.7 346 409 353.5C436.3 361 463.7 334 491 335.5C518.3 337 545.7 367 573 375.3C600.3 383.7 627.7 370.3 654.8 362.2C682 354 709 351 736.2 348C763.3 345 790.7 342 818 333C845.3 324 872.7 309 886.3 301.5L900 294L900 193L886.3 204.2C872.7 215.3 845.3 237.7 818 245.8C790.7 254 763.3 248 736.2 250.3C709 252.7 682 263.3 654.8 268.7C627.7 274 600.3 274 573 272.5C545.7 271 518.3 268 491 277.7C463.7 287.3 436.3 309.7 409 302.2C381.7 294.7 354.3 257.3 327 234.8C299.7 212.3 272.3 204.7 245.2 218.2C218 231.7 191 266.3 163.8 280.7C136.7 295 109.3 289 82 276.2C54.7 263.3 27.3 243.7 13.7 233.8L0 224Z" fill="#50412a"></path><path d="M0 451L13.7 451C27.3 451 54.7 451 82 451C109.3 451 136.7 451 163.8 451C191 451 218 451 245.2 451C272.3 451 299.7 451 327 451C354.3 451 381.7 451 409 451C436.3 451 463.7 451 491 451C518.3 451 545.7 451 573 451C600.3 451 627.7 451 654.8 451C682 451 709 451 736.2 451C763.3 451 790.7 451 818 451C845.3 451 872.7 451 886.3 451L900 451L900 292L886.3 299.5C872.7 307 845.3 322 818 331C790.7 340 763.3 343 736.2 346C709 349 682 352 654.8 360.2C627.7 368.3 600.3 381.7 573 373.3C545.7 365 518.3 335 491 333.5C463.7 332 436.3 359 409 351.5C381.7 344 354.3 302 327 281C299.7 260 272.3 260 245.2 277.3C218 294.7 191 329.3 163.8 339.2C136.7 349 109.3 334 82 330.2C54.7 326.3 27.3 333.7 13.7 337.3L0 341Z" fill="#5e4d31"></path></svg>