
<svg id="visual" viewBox="0 0 900 450" width="900" height="450" xmlns="http://www.w3.org/2000/svg" xmlns:xlink="http://www.w3.org/1999/xlink" version="1.1"><g stroke-width="1" stroke-linejoin="bevel"><path d="M465 263L413 293L515 329Z" fill="#e2d6b8" stroke="#e2d6b8"></path><path d="M413 293L384 327L515 329Z" fill="#d1c5a6" stroke="#d1c5a6"></path><path d="M515 329L568 284L465 263Z" fill="#d8ccad" stroke="#d8ccad"></path><path d="M384 327L463 450L515 329Z" fill="#d1c5a6" stroke="#d1c5a6"></path><path d="M515 329L639 348L568 284Z" fill="#cec2a3" stroke="#cec2a3"></path><path d="M384 327L430 450L463 450Z" fill="#c7bb9c" stroke="#c7bb9c"></path><path d="M269 306L339 377L384 327Z" fill="#e6dabb" stroke="#e6dabb"></path><path d="M384 327L339 377L430 450Z" fill="#cec2a3" stroke="#cec2a3"></path><path d="M568 284L527 186L465 263Z" fill="#e6dabb" stroke="#e6dabb"></path><path d="M465 263L388 171L413 293Z" fill="#dbcfb1" stroke="#dbcfb1"></path><path d="M568 284L580 218L527 186Z" fill="#c7bb9c" stroke="#c7bb9c"></path><path d="M527 186L388 171L465 263Z" fill="#cabe9f" stroke="#cabe9f"></path><path d="M413 293L269 306L384 327Z" fill="#dbcfb1" stroke="#dbcfb1"></path><path d="M463 450L575 450L515 329Z" fill="#dbcfb1" stroke="#dbcfb1"></path><path d="M568 284L701 288L580 218Z" fill="#dbcfb1" stroke="#dbcfb1"></path><path d="M575 450L639 348L515 329Z" fill="#d5c9aa" stroke="#d5c9aa"></path><path d="M388 171L269 306L413 293Z" fill="#e9ddbf" stroke="#e9ddbf"></path><path d="M207 336L289 450L339 377Z" fill="#c7bb9c" stroke="#c7bb9c"></path><path d="M339 377L289 450L430 450Z" fill="#dfd3b4" stroke="#dfd3b4"></path><path d="M421 81L304 146L388 171Z" fill="#d5c9aa" stroke="#d5c9aa"></path><path d="M388 171L304 146L269 306Z" fill="#d5c9aa" stroke="#d5c9aa"></path><path d="M668 450L698 356L639 348Z" fill="#c7bb9c" stroke="#c7bb9c"></path><path d="M639 348L701 288L568 284Z" fill="#e9ddbf" stroke="#e9ddbf"></path><path d="M527 186L421 81L388 171Z" fill="#e2d6b8" stroke="#e2d6b8"></path><path d="M530 64L421 81L527 186Z" fill="#e9ddbf" stroke="#e9ddbf"></path><path d="M698 356L701 288L639 348Z" fill="#e9ddbf" stroke="#e9ddbf"></path><path d="M580 218L626 86L527 186Z" fill="#c7bb9c" stroke="#c7bb9c"></path><path d="M575 450L668 450L639 348Z" fill="#d8ccad" stroke="#d8ccad"></path><path d="M701 288L664 178L580 218Z" fill="#d1c5a6" stroke="#d1c5a6"></path><path d="M269 306L207 336L339 377Z" fill="#c7bb9c" stroke="#c7bb9c"></path><path d="M199 304L207 336L269 306Z" fill="#cabe9f" stroke="#cabe9f"></path><path d="M626 86L530 64L527 186Z" fill="#cabe9f" stroke="#cabe9f"></path><path d="M215 176L199 304L269 306Z" fill="#c7bb9c" stroke="#c7bb9c"></path><path d="M664 178L626 86L580 218Z" fill="#d1c5a6" stroke="#d1c5a6"></path><path d="M304 146L215 176L269 306Z" fill="#d1c5a6" stroke="#d1c5a6"></path><path d="M266 66L215 176L304 146Z" fill="#c7bb9c" stroke="#c7bb9c"></path><path d="M814 171L680 106L664 178Z" fill="#d5c9aa" stroke="#d5c9aa"></path><path d="M664 178L680 106L626 86Z" fill="#d8ccad" stroke="#d8ccad"></path><path d="M106 337L176 450L207 336Z" fill="#dbcfb1" stroke="#dbcfb1"></path><path d="M207 336L176 450L289 450Z" fill="#e6dabb" stroke="#e6dabb"></path><path d="M118 300L207 336L199 304Z" fill="#c7bb9c" stroke="#c7bb9c"></path><path d="M294 0L266 66L421 81Z" fill="#c7bb9c" stroke="#c7bb9c"></path><path d="M421 81L266 66L304 146Z" fill="#e6dabb" stroke="#e6dabb"></path><path d="M530 64L432 0L421 81Z" fill="#cec2a3" stroke="#cec2a3"></path><path d="M522 0L432 0L530 64Z" fill="#c7bb9c" stroke="#c7bb9c"></path><path d="M522 0L530 64L579 0Z" fill="#e6dabb" stroke="#e6dabb"></path><path d="M579 0L530 64L626 86Z" fill="#cec2a3" stroke="#cec2a3"></path><path d="M685 0L579 0L626 86Z" fill="#d5c9aa" stroke="#d5c9aa"></path><path d="M97 210L199 304L215 176Z" fill="#dfd3b4" stroke="#dfd3b4"></path><path d="M97 210L118 300L199 304Z" fill="#d5c9aa" stroke="#d5c9aa"></path><path d="M294 0L230 53L266 66Z" fill="#d5c9aa" stroke="#d5c9aa"></path><path d="M266 66L230 53L215 176Z" fill="#dbcfb1" stroke="#dbcfb1"></path><path d="M701 288L810 246L664 178Z" fill="#cec2a3" stroke="#cec2a3"></path><path d="M820 398L810 246L701 288Z" fill="#cec2a3" stroke="#cec2a3"></path><path d="M820 398L701 288L698 356Z" fill="#c7bb9c" stroke="#c7bb9c"></path><path d="M118 300L106 337L207 336Z" fill="#dbcfb1" stroke="#dbcfb1"></path><path d="M432 0L294 0L421 81Z" fill="#d8ccad" stroke="#d8ccad"></path><path d="M668 450L820 398L698 356Z" fill="#dbcfb1" stroke="#dbcfb1"></path><path d="M106 337L116 450L176 450Z" fill="#e9ddbf" stroke="#e9ddbf"></path><path d="M125 93L97 210L215 176Z" fill="#e6dabb" stroke="#e6dabb"></path><path d="M118 300L0 338L106 337Z" fill="#d5c9aa" stroke="#d5c9aa"></path><path d="M900 231L814 171L810 246Z" fill="#c7bb9c" stroke="#c7bb9c"></path><path d="M810 246L814 171L664 178Z" fill="#cabe9f" stroke="#cabe9f"></path><path d="M680 106L685 0L626 86Z" fill="#e6dabb" stroke="#e6dabb"></path><path d="M779 0L685 0L680 106Z" fill="#d8ccad" stroke="#d8ccad"></path><path d="M668 450L827 450L820 398Z" fill="#cec2a3" stroke="#cec2a3"></path><path d="M820 398L900 325L810 246Z" fill="#d1c5a6" stroke="#d1c5a6"></path><path d="M230 53L125 93L215 176Z" fill="#c7bb9c" stroke="#c7bb9c"></path><path d="M135 0L125 93L230 53Z" fill="#d1c5a6" stroke="#d1c5a6"></path><path d="M294 0L205 0L230 53Z" fill="#d5c9aa" stroke="#d5c9aa"></path><path d="M814 171L805 70L680 106Z" fill="#e6dabb" stroke="#e6dabb"></path><path d="M900 450L900 325L820 398Z" fill="#d1c5a6" stroke="#d1c5a6"></path><path d="M814 171L900 114L805 70Z" fill="#dbcfb1" stroke="#dbcfb1"></path><path d="M900 325L900 231L810 246Z" fill="#e6dabb" stroke="#e6dabb"></path><path d="M805 70L779 0L680 106Z" fill="#c7bb9c" stroke="#c7bb9c"></path><path d="M900 0L779 0L805 70Z" fill="#e6dabb" stroke="#e6dabb"></path><path d="M205 0L135 0L230 53Z" fill="#dbcfb1" stroke="#dbcfb1"></path><path d="M0 251L118 300L97 210Z" fill="#cabe9f" stroke="#cabe9f"></path><path d="M827 450L900 450L820 398Z" fill="#cabe9f" stroke="#cabe9f"></path><path d="M0 251L0 338L118 300Z" fill="#cabe9f" stroke="#cabe9f"></path><path d="M106 337L0 450L116 450Z" fill="#d8ccad" stroke="#d8ccad"></path><path d="M0 251L97 210L0 187Z" fill="#d5c9aa" stroke="#d5c9aa"></path><path d="M900 231L900 170L814 171Z" fill="#dfd3b4" stroke="#dfd3b4"></path><path d="M0 187L97 210L125 93Z" fill="#e2d6b8" stroke="#e2d6b8"></path><path d="M0 78L0 187L125 93Z" fill="#dbcfb1" stroke="#dbcfb1"></path><path d="M0 338L0 450L106 337Z" fill="#d5c9aa" stroke="#d5c9aa"></path><path d="M900 170L900 114L814 171Z" fill="#d8ccad" stroke="#d8ccad"></path><path d="M135 0L0 78L125 93Z" fill="#e9ddbf" stroke="#e9ddbf"></path><path d="M900 114L900 0L805 70Z" fill="#e2d6b8" stroke="#e2d6b8"></path><path d="M135 0L0 0L0 78Z" fill="#cabe9f" stroke="#cabe9f"></path></g></svg>